<svg width="29" height="29" viewBox="0 0 29 29" fill="none" xmlns="http://www.w3.org/2000/svg">
<path d="M27.6249 27.6253L21.2914 21.2918M21.2914 21.2918C22.3748 20.2084 23.2342 18.9222 23.8205 17.5067C24.4068 16.0912 24.7086 14.5741 24.7086 13.042C24.7086 11.5098 24.4068 9.99271 23.8205 8.57721C23.2342 7.16171 22.3748 5.87555 21.2914 4.79218C20.208 3.7088 18.9219 2.84942 17.5064 2.2631C16.0909 1.67678 14.5737 1.375 13.0416 1.375C11.5095 1.375 9.99235 1.67678 8.57685 2.2631C7.16134 2.84942 5.87519 3.7088 4.79181 4.79218C2.60383 6.98016 1.37463 9.9477 1.37463 13.042C1.37463 16.1362 2.60383 19.1038 4.79181 21.2918C6.97979 23.4797 9.94733 24.7089 13.0416 24.7089C16.1359 24.7089 19.1034 23.4797 21.2914 21.2918Z" stroke="white" stroke-width="2.1875" stroke-linecap="round" stroke-linejoin="round"/>
</svg>
