<svg width="18" height="22" viewBox="0 0 18 22" fill="none" xmlns="http://www.w3.org/2000/svg">
<path d="M14.8917 20.9068C13.7484 22.0152 12.5 21.8402 11.2984 21.3152C10.0267 20.7785 8.86003 20.7552 7.51836 21.3152C5.83836 22.0385 4.9517 21.8285 3.94836 20.9068C-1.74497 15.0385 -0.904971 6.10183 5.55836 5.77516C7.13336 5.85683 8.23003 6.63849 9.1517 6.70849C10.5284 6.42849 11.8467 5.62349 13.3167 5.72849C15.0784 5.86849 16.4084 6.56849 17.2834 7.82849C13.6434 10.0102 14.5067 14.8052 17.8434 16.1468C17.1784 17.8968 16.315 19.6352 14.88 20.9185L14.8917 20.9068ZM9.03503 5.70516C8.86003 3.10349 10.9717 0.956826 13.3984 0.746826C13.7367 3.75683 10.6684 5.99683 9.03503 5.70516Z" fill="black"/>
</svg>
