<svg width="37" height="28" viewBox="0 0 37 28" fill="none" xmlns="http://www.w3.org/2000/svg">
<path d="M6.55163 27.861V26.0078C6.55163 25.2972 6.11911 24.834 5.37774 24.834C5.00713 24.834 4.60556 24.9575 4.32753 25.3591C4.11141 25.0193 3.80257 24.834 3.33923 24.834C3.03025 24.834 2.72154 24.9266 2.47433 25.2664V24.8958H1.82568V27.861H2.47433V26.2239C2.47433 25.6989 2.75236 25.4517 3.18488 25.4517C3.61712 25.4517 3.83352 25.7297 3.83352 26.2239V27.861H4.48217V26.2239C4.48217 25.6989 4.79087 25.4517 5.19244 25.4517C5.62496 25.4517 5.84108 25.7297 5.84108 26.2239V27.861H6.55163ZM16.1576 24.8958H15.1075V24.0001H14.4589V24.8958H13.872V25.4825H14.4587V26.8417C14.4587 27.5213 14.7368 27.9227 15.4781 27.9227C15.7562 27.9227 16.0649 27.8301 16.2813 27.7066L16.0958 27.1506C15.9105 27.2741 15.6944 27.305 15.5399 27.305C15.2311 27.305 15.1075 27.1197 15.1075 26.8108V25.4825H16.1576V24.8958ZM21.6557 24.8339C21.2851 24.8339 21.038 25.0193 20.8836 25.2664V24.8958H20.2349V27.861H20.8836V26.1931C20.8836 25.6989 21.0997 25.4209 21.5012 25.4209C21.6248 25.4209 21.7793 25.4518 21.9028 25.4827L22.0881 24.865C21.9646 24.834 21.7793 24.834 21.6557 24.834M13.3469 25.143C13.0379 24.9267 12.6055 24.8341 12.1422 24.8341C11.401 24.8341 10.9068 25.2048 10.9068 25.7916C10.9068 26.2859 11.2774 26.5638 11.9261 26.6565L12.2349 26.6875C12.5747 26.7491 12.76 26.8418 12.76 26.9963C12.76 27.2125 12.513 27.367 12.0804 27.367C11.6479 27.367 11.3083 27.2125 11.092 27.0581L10.7832 27.5523C11.1229 27.7993 11.5863 27.9229 12.0495 27.9229C12.9144 27.9229 13.4087 27.5214 13.4087 26.9654C13.4087 26.4403 13.0071 26.1622 12.3893 26.0697L12.0804 26.0387C11.8024 26.0078 11.5863 25.9461 11.5863 25.7608C11.5863 25.5446 11.8024 25.421 12.1422 25.421C12.513 25.421 12.8836 25.5754 13.0689 25.6681L13.3469 25.143ZM30.5824 24.8341C30.2116 24.8341 29.9646 25.0195 29.8101 25.2665V24.8959H29.1614V27.8611H29.8101V26.1932C29.8101 25.6991 30.0263 25.421 30.4278 25.421C30.5514 25.421 30.7059 25.452 30.8295 25.4828L31.0148 24.8651C30.8912 24.8341 30.7059 24.8341 30.5824 24.8341ZM22.3044 26.3785C22.3044 27.2742 22.9221 27.9229 23.8797 27.9229C24.3121 27.9229 24.6209 27.8303 24.9298 27.5832L24.6209 27.0581C24.3738 27.2434 24.1268 27.336 23.8487 27.336C23.3236 27.336 22.953 26.9654 22.953 26.3785C22.953 25.8226 23.3236 25.4518 23.8487 25.421C24.1268 25.421 24.3738 25.5136 24.6209 25.6991L24.9298 25.1739C24.6209 24.9267 24.3121 24.8341 23.8797 24.8341C22.9221 24.8341 22.3044 25.4828 22.3044 26.3785ZM28.2967 26.3785V24.8959H27.648V25.2665C27.4318 24.9886 27.1229 24.8341 26.7213 24.8341C25.8874 24.8341 25.2388 25.4828 25.2388 26.3785C25.2388 27.2742 25.8874 27.9229 26.7213 27.9229C27.1537 27.9229 27.4627 27.7685 27.648 27.4905V27.8611H28.2967V26.3785ZM25.9182 26.3785C25.9182 25.8534 26.258 25.421 26.8139 25.421C27.339 25.421 27.7098 25.8226 27.7098 26.3785C27.7098 26.9036 27.339 27.336 26.8139 27.336C26.258 27.305 25.9182 26.9036 25.9182 26.3785ZM18.1654 24.8341C17.3005 24.8341 16.6827 25.4518 16.6827 26.3785C16.6827 27.3052 17.3004 27.9229 18.1963 27.9229C18.6286 27.9229 19.0612 27.7993 19.401 27.5214L19.092 27.0581C18.8449 27.2434 18.5361 27.367 18.2272 27.367C17.8256 27.367 17.4241 27.1816 17.3314 26.6564H19.5245V26.4095C19.5555 25.4518 18.9995 24.8341 18.1654 24.8341ZM18.1653 25.3901C18.5667 25.3901 18.8449 25.6373 18.9065 26.1006H17.3622C17.4239 25.6991 17.702 25.3901 18.1653 25.3901ZM34.2578 26.3785V23.7222H33.6092V25.2665C33.3929 24.9886 33.0841 24.8341 32.6825 24.8341C31.8486 24.8341 31.1999 25.4828 31.1999 26.3785C31.1999 27.2742 31.8486 27.9229 32.6825 27.9229C33.115 27.9229 33.4239 27.7685 33.6092 27.4905V27.8611H34.2578V26.3785ZM31.8795 26.3785C31.8795 25.8534 32.2192 25.421 32.7752 25.421C33.3004 25.421 33.671 25.8226 33.671 26.3785C33.671 26.9036 33.3004 27.336 32.7752 27.336C32.2192 27.305 31.8795 26.9036 31.8795 26.3785ZM10.1961 26.3785V24.8959H9.54749V25.2665C9.33123 24.9886 9.02239 24.8341 8.62082 24.8341C7.78687 24.8341 7.13823 25.4828 7.13823 26.3785C7.13823 27.2742 7.78687 27.9229 8.62082 27.9229C9.05334 27.9229 9.36219 27.7685 9.54749 27.4905V27.8611H10.1961V26.3785ZM7.78687 26.3785C7.78687 25.8534 8.12667 25.421 8.68259 25.421C9.20769 25.421 9.57845 25.8226 9.57845 26.3785C9.57845 26.9036 9.20769 27.336 8.68259 27.336C8.12667 27.305 7.78687 26.9036 7.78687 26.3785Z" fill="#EBF7F7"/>
<path d="M13.1309 2.37842H22.8605V19.861H13.1309V2.37842Z" fill="#FF5F00"/>
<path d="M13.7486 11.1197C13.7486 7.5676 15.4165 4.41696 17.9801 2.37831C16.0961 0.895719 13.7178 0 11.1232 0C4.9763 0 0.00341797 4.97288 0.00341797 11.1197C0.00341797 17.2664 4.9763 22.2393 11.1231 22.2393C13.7177 22.2393 16.096 21.3436 17.9801 19.8609C15.4165 17.8532 13.7486 14.6717 13.7486 11.1197Z" fill="#EB001B"/>
<path d="M35.9879 11.1197C35.9879 17.2663 31.015 22.2393 24.8683 22.2393C22.2737 22.2393 19.8954 21.3436 18.0112 19.8609C20.6058 17.8224 22.2429 14.6717 22.2429 11.1197C22.2429 7.5676 20.5748 4.41696 18.0112 2.37831C19.8953 0.895719 22.2737 0 24.8683 0C31.015 0 35.9879 5.00384 35.9879 11.1197Z" fill="#F79E1B"/>
</svg>
