<svg width="28" height="28" viewBox="0 0 28 28" fill="none" xmlns="http://www.w3.org/2000/svg">
<path d="M10.3624 23.2634C10.3188 23.5377 10.1788 23.7875 9.96749 23.9678C9.7562 24.148 9.48751 24.247 9.20976 24.2469H4.7391C4.47907 24.2474 4.22206 24.1912 3.98599 24.0822C3.74992 23.9732 3.54045 23.814 3.37219 23.6157C3.20393 23.4175 3.08092 23.1849 3.01173 22.9343C2.94255 22.6836 2.92885 22.4209 2.9716 22.1644L5.99326 3.02408C6.07631 2.50697 6.34052 2.03623 6.73868 1.69598C7.13685 1.35573 7.64302 1.16815 8.16676 1.16675H15.4164C18.4031 1.16675 20.5591 1.89008 21.8238 3.31691C22.4255 4.01035 22.8536 4.837 23.0727 5.72858C23.2918 6.62016 23.2956 7.55107 23.0838 8.44441C23.0593 8.60191 23.0336 8.75941 22.9963 8.93208C22.0361 13.8531 18.7321 16.4652 13.4459 16.4652H11.4416L10.3624 23.2634Z" fill="black"/>
<path opacity="0.75" d="M23.8433 8.28798C23.6498 8.07153 23.4369 7.87315 23.2074 7.69531C23.1827 7.94742 23.1414 8.19762 23.0838 8.44431C23.0593 8.60181 23.0336 8.75931 22.9963 8.93198C22.0361 13.853 18.7321 16.4651 13.4459 16.4651H11.4416L10.3624 23.2633C10.3188 23.5376 10.1788 23.7874 9.9675 23.9677C9.75621 24.1479 9.48753 24.2469 9.20978 24.2468H7.84828L7.75261 24.8535C7.71383 25.0978 7.72847 25.3476 7.79551 25.5857C7.86256 25.8238 7.98043 26.0446 8.14099 26.2327C8.30155 26.4209 8.501 26.572 8.72559 26.6757C8.95018 26.7794 9.19458 26.8332 9.44195 26.8333H13.2149C13.7037 26.8375 14.178 26.6673 14.5524 26.3531C14.9269 26.039 15.177 25.6015 15.2578 25.1195L16.0044 20.4166L16.0184 20.3525H16.3661C21.0713 20.3525 24.0089 18.0273 24.8664 13.6301C25.1279 12.7221 25.1715 11.7653 24.9937 10.8373C24.8159 9.90925 24.4218 9.03508 23.8433 8.28798Z" fill="black"/>
</svg>
