<svg width="40" height="17" viewBox="0 0 40 17" fill="none" xmlns="http://www.w3.org/2000/svg">
<path d="M10.3062 1.29375L7.6 1.86875L7.5875 10.7687C7.5875 12.4125 8.825 13.475 10.4688 13.475C11.3813 13.475 12.05 13.3063 12.4187 13.1063V10.9937C12.0625 11.1375 10.3125 11.65 10.3125 10.0125V6.0625H12.4187V3.7H10.3125L10.3062 1.29375ZM15.875 4.51875L15.7062 3.7H13.3062V13.275H16.075V6.83125C16.7312 5.96875 17.8375 6.1375 18.1938 6.25V3.7C17.8188 3.56875 16.525 3.325 15.875 4.51875ZM21.6437 0L18.8562 0.59375V2.85625L21.6437 2.2625V0ZM2.8 6.51875C2.8 6.0875 3.1625 5.91875 3.74375 5.9125C4.5875 5.9125 5.6625 6.16875 6.50625 6.625V4.0125C5.5875 3.65 4.66875 3.50625 3.75 3.50625C1.5 3.50625 0 4.68125 0 6.64375C0 9.71875 4.21875 9.21875 4.21875 10.5438C4.21875 11.0563 3.775 11.225 3.15625 11.225C2.2375 11.225 1.05 10.8438 0.11875 10.3375V12.8375C1.15 13.2812 2.19375 13.4688 3.15 13.4688C5.45625 13.4688 7.04375 12.4813 7.04375 10.4813C7.04375 7.175 2.8 7.76875 2.8 6.51875ZM39.9938 8.6C39.9938 5.75625 38.6188 3.5125 35.9813 3.5125C33.3438 3.5125 31.7375 5.75625 31.7375 8.58125C31.7375 11.925 33.6313 13.4688 36.3313 13.4688C37.6563 13.4688 38.65 13.1687 39.4062 12.75V10.6625C38.65 11.0438 37.7812 11.275 36.6813 11.275C35.6 11.275 34.65 10.8938 34.525 9.59375H39.9563C39.9688 9.45 39.9938 8.86875 39.9938 8.6ZM34.5 7.55C34.5 6.3 35.2688 5.775 35.9625 5.775C36.6438 5.775 37.3688 6.3 37.3688 7.55H34.5ZM27.4438 3.5125C26.3563 3.5125 25.6562 4.025 25.2687 4.38125L25.125 3.69375H22.6812V16.4937L25.4562 15.9062L25.4625 12.7687C25.8625 13.0625 26.4562 13.4688 27.425 13.4688C29.4125 13.4688 31.225 12.0187 31.225 8.49375C31.2313 5.26875 29.3938 3.5125 27.4438 3.5125ZM26.7812 11.1688C26.1313 11.1688 25.7437 10.9312 25.475 10.6437L25.4562 6.51875C25.7437 6.2 26.1437 5.96875 26.7812 5.96875C27.7938 5.96875 28.4937 7.10625 28.4937 8.55625C28.5 10.05 27.8125 11.1688 26.7812 11.1688ZM18.8625 13.275H21.65V3.7H18.8625V13.275Z" fill="black"/>
</svg>
