<svg width="36" height="12" viewBox="0 0 36 12" fill="none" xmlns="http://www.w3.org/2000/svg">
<path d="M13.668 0.207001L8.955 11.451H5.88L3.561 2.4765C3.42 1.9245 3.2985 1.722 2.8695 1.4895C2.1705 1.11 1.0155 0.754501 0 0.532501L0.069 0.207001H5.019C5.34247 0.206676 5.6554 0.321997 5.90131 0.532147C6.14722 0.742297 6.3099 1.03343 6.36 1.353L7.5855 7.86L10.6125 0.207001H13.668ZM25.7175 7.7805C25.7295 4.812 21.6135 4.6485 21.642 3.3225C21.651 2.919 22.035 2.49 22.875 2.3805C23.8594 2.28701 24.8508 2.46114 25.7445 2.8845L26.2545 0.4995C25.3845 0.1722 24.463 0.00303983 23.5335 0C20.658 0 18.6345 1.53 18.6165 3.7185C18.5985 5.337 20.061 6.2385 21.1635 6.7785C22.2975 7.329 22.6785 7.683 22.6725 8.175C22.665 8.931 21.7695 9.2625 20.9325 9.276C19.47 9.2985 18.6225 8.8815 17.9445 8.5665L17.418 11.0295C18.0975 11.3415 19.3515 11.6145 20.652 11.6265C23.7075 11.6265 25.707 10.1175 25.7175 7.7805ZM33.309 11.451H36L33.6525 0.207001H31.1685C30.903 0.203924 30.6427 0.281013 30.4216 0.428196C30.2006 0.575379 30.0291 0.785813 29.9295 1.032L25.566 11.451H28.62L29.2275 9.771H32.9595L33.309 11.451ZM30.0645 7.467L31.5945 3.2445L32.4765 7.467H30.0645ZM17.8245 0.207001L15.42 11.451H12.51L14.9175 0.207001H17.8245Z" fill="black"/>
</svg>
